<svg t="1684468477568" class="icon" viewBox="0 0 1024 1024" version="1.1" xmlns="http://www.w3.org/2000/svg" p-id="878" width="200" height="200"><path d="M963.96672 65.92c-26.88-14.08-72.96-21.12-143.36 28.16-80.64 57.6-177.28 190.08-308.48 423.04-131.2-232.96-227.84-365.44-308.48-422.4C133.24672 45.44 87.16672 51.84 60.28672 66.56 18.04672 88.32-1.79328 142.08 0.12672 224c3.2 133.12 69.12 535.04 159.36 670.72 33.28 49.28 65.92 73.6 100.48 73.6h1.28c48.64-0.64 78.72-48 100.48-82.56 5.12-7.68 9.6-15.36 14.08-21.12 20.48-28.8 93.44-136.96 136.32-208.64 43.52 71.68 115.84 179.2 136.96 208.64 4.48 5.76 8.96 13.44 14.08 21.12 21.76 34.56 51.84 81.92 100.48 82.56h1.28c34.56 0 67.84-24.32 100.48-73.6 89.6-135.04 154.88-536.96 158.72-670.72 1.92-81.92-17.92-135.68-60.16-158.08z" p-id="879"></path></svg>